<svg xmlns="http://www.w3.org/2000/svg" xmlns:xlink="http://www.w3.org/1999/xlink" width="500" zoomAndPan="magnify" viewBox="0 0 375 374.999991" height="500" preserveAspectRatio="xMidYMid meet" version="1.0"><path fill="#e9f1f2" d="M 58.191406 45.257812 L 84.050781 45.257812 L 84.050781 12.929688 C 84.050781 5.785156 78.265625 0 71.121094 0 C 63.976562 0 58.191406 5.785156 58.191406 12.929688 Z M 58.191406 45.257812 " fill-opacity="1" fill-rule="nonzero"/><path fill="#e9f1f2" d="M 290.949219 45.257812 L 316.808594 45.257812 L 316.808594 12.929688 C 316.808594 5.785156 311.023438 0 303.878906 0 C 296.734375 0 290.949219 5.785156 290.949219 12.929688 Z M 290.949219 45.257812 " fill-opacity="1" fill-rule="nonzero"/><path fill="#e9f1f2" d="M 174.570312 38.792969 L 200.429688 38.792969 L 200.429688 12.929688 C 200.429688 5.785156 194.644531 0 187.5 0 C 180.355469 0 174.570312 5.785156 174.570312 12.929688 Z M 174.570312 38.792969 " fill-opacity="1" fill-rule="nonzero"/><path fill="#e9f1f2" d="M 232.757812 38.792969 L 258.621094 38.792969 L 258.621094 12.929688 C 258.621094 5.785156 252.835938 0 245.691406 0 C 238.546875 0 232.757812 5.785156 232.757812 12.929688 Z M 232.757812 38.792969 " fill-opacity="1" fill-rule="nonzero"/><path fill="#e9f1f2" d="M 116.378906 38.792969 L 142.242188 38.792969 L 142.242188 12.929688 C 142.242188 5.785156 136.453125 0 129.308594 0 C 122.164062 0 116.378906 5.785156 116.378906 12.929688 Z M 116.378906 38.792969 " fill-opacity="1" fill-rule="nonzero"/><path fill="#e9f1f2" d="M 58.191406 329.742188 L 84.050781 329.742188 L 84.050781 362.070312 C 84.050781 369.214844 78.265625 375 71.121094 375 C 63.976562 375 58.191406 369.214844 58.191406 362.070312 Z M 58.191406 329.742188 " fill-opacity="1" fill-rule="nonzero"/><path fill="#e9f1f2" d="M 290.949219 329.742188 L 316.808594 329.742188 L 316.808594 362.070312 C 316.808594 369.214844 311.023438 375 303.878906 375 C 296.734375 375 290.949219 369.214844 290.949219 362.070312 Z M 290.949219 329.742188 " fill-opacity="1" fill-rule="nonzero"/><path fill="#e9f1f2" d="M 174.570312 336.207031 L 200.429688 336.207031 L 200.429688 362.070312 C 200.429688 369.214844 194.644531 375 187.5 375 C 180.355469 375 174.570312 369.214844 174.570312 362.070312 Z M 174.570312 336.207031 " fill-opacity="1" fill-rule="nonzero"/><path fill="#e9f1f2" d="M 232.757812 336.207031 L 258.621094 336.207031 L 258.621094 362.070312 C 258.621094 369.214844 252.835938 375 245.691406 375 C 238.546875 375 232.757812 369.214844 232.757812 362.070312 Z M 232.757812 336.207031 " fill-opacity="1" fill-rule="nonzero"/><path fill="#e9f1f2" d="M 116.378906 336.207031 L 142.242188 336.207031 L 142.242188 362.070312 C 142.242188 369.214844 136.453125 375 129.308594 375 C 122.164062 375 116.378906 369.214844 116.378906 362.070312 Z M 116.378906 336.207031 " fill-opacity="1" fill-rule="nonzero"/><path fill="#e9f1f2" d="M 45.257812 316.808594 L 45.257812 290.949219 L 12.929688 290.949219 C 5.785156 290.949219 0 296.734375 0 303.878906 C 0 311.023438 5.785156 316.808594 12.929688 316.808594 Z M 45.257812 316.808594 " fill-opacity="1" fill-rule="nonzero"/><path fill="#e9f1f2" d="M 45.257812 84.050781 L 45.257812 58.191406 L 12.929688 58.191406 C 5.785156 58.191406 0 63.976562 0 71.121094 C 0 78.265625 5.785156 84.050781 12.929688 84.050781 Z M 45.257812 84.050781 " fill-opacity="1" fill-rule="nonzero"/><path fill="#e9f1f2" d="M 38.792969 200.429688 L 38.792969 174.570312 L 12.929688 174.570312 C 5.785156 174.570312 0 180.355469 0 187.5 C 0 194.644531 5.785156 200.429688 12.929688 200.429688 Z M 38.792969 200.429688 " fill-opacity="1" fill-rule="nonzero"/><path fill="#e9f1f2" d="M 38.792969 142.242188 L 38.792969 116.378906 L 12.929688 116.378906 C 5.785156 116.378906 0 122.164062 0 129.308594 C 0 136.453125 5.785156 142.242188 12.929688 142.242188 Z M 38.792969 142.242188 " fill-opacity="1" fill-rule="nonzero"/><path fill="#e9f1f2" d="M 38.792969 258.621094 L 38.792969 232.757812 L 12.929688 232.757812 C 5.785156 232.757812 0 238.546875 0 245.691406 C 0 252.835938 5.785156 258.621094 12.929688 258.621094 Z M 38.792969 258.621094 " fill-opacity="1" fill-rule="nonzero"/><path fill="#e9f1f2" d="M 329.742188 316.808594 L 329.742188 290.949219 L 362.070312 290.949219 C 369.214844 290.949219 375 296.734375 375 303.878906 C 375 311.023438 369.214844 316.808594 362.070312 316.808594 Z M 329.742188 316.808594 " fill-opacity="1" fill-rule="nonzero"/><path fill="#e9f1f2" d="M 329.742188 84.050781 L 329.742188 58.191406 L 362.070312 58.191406 C 369.214844 58.191406 375 63.976562 375 71.121094 C 375 78.265625 369.214844 84.050781 362.070312 84.050781 Z M 329.742188 84.050781 " fill-opacity="1" fill-rule="nonzero"/><path fill="#e9f1f2" d="M 336.207031 200.429688 L 336.207031 174.570312 L 362.070312 174.570312 C 369.214844 174.570312 375 180.355469 375 187.5 C 375 194.644531 369.214844 200.429688 362.070312 200.429688 Z M 336.207031 200.429688 " fill-opacity="1" fill-rule="nonzero"/><path fill="#e9f1f2" d="M 336.207031 142.242188 L 336.207031 116.378906 L 362.070312 116.378906 C 369.214844 116.378906 375 122.164062 375 129.308594 C 375 136.453125 369.214844 142.242188 362.070312 142.242188 Z M 336.207031 142.242188 " fill-opacity="1" fill-rule="nonzero"/><path fill="#e9f1f2" d="M 336.207031 258.621094 L 336.207031 232.757812 L 362.070312 232.757812 C 369.214844 232.757812 375 238.546875 375 245.691406 C 375 252.835938 369.214844 258.621094 362.070312 258.621094 Z M 336.207031 258.621094 " fill-opacity="1" fill-rule="nonzero"/><path fill="#b8bebf" d="M 310.34375 38.792969 L 64.65625 38.792969 C 50.371094 38.792969 38.792969 50.371094 38.792969 64.65625 L 38.792969 310.34375 C 38.792969 324.628906 50.371094 336.207031 64.65625 336.207031 L 310.34375 336.207031 C 324.628906 336.207031 336.207031 324.628906 336.207031 310.34375 L 336.207031 64.65625 C 336.207031 50.371094 324.628906 38.792969 310.34375 38.792969 Z M 310.34375 38.792969 " fill-opacity="1" fill-rule="nonzero"/><path fill="#93999a" d="M 245.691406 109.914062 L 129.308594 109.914062 C 118.617188 109.914062 109.914062 118.617188 109.914062 129.308594 L 109.914062 245.691406 C 109.914062 256.382812 118.617188 265.085938 129.308594 265.085938 L 245.691406 265.085938 C 256.382812 265.085938 265.085938 256.382812 265.085938 245.691406 L 265.085938 129.308594 C 265.085938 118.617188 256.382812 109.914062 245.691406 109.914062 Z M 258.621094 245.691406 C 258.621094 252.835938 252.835938 258.621094 245.691406 258.621094 L 129.308594 258.621094 C 122.164062 258.621094 116.378906 252.835938 116.378906 245.691406 L 116.378906 129.308594 C 116.378906 122.164062 122.164062 116.378906 129.308594 116.378906 L 245.691406 116.378906 C 252.835938 116.378906 258.621094 122.164062 258.621094 129.308594 Z M 258.621094 245.691406 " fill-opacity="1" fill-rule="nonzero"/><path fill="#ffc857" d="M 73.640625 199.785156 C 68.40625 198.101562 64.65625 193.253906 64.65625 187.5 C 64.65625 182.714844 67.304688 178.511719 71.183594 176.25 C 71.25 184.265625 72.089844 192.15625 73.640625 199.785156 Z M 73.640625 199.785156 " fill-opacity="1" fill-rule="nonzero"/><path fill="#ffc857" d="M 250.410156 303.878906 C 248.148438 307.757812 244.007812 310.34375 239.222656 310.34375 C 234.441406 310.34375 230.300781 307.757812 228.039062 303.878906 Z M 250.410156 303.878906 " fill-opacity="1" fill-rule="nonzero"/><path fill="#769fb6" d="M 297.414062 258.621094 C 293.839844 258.621094 290.949219 255.722656 290.949219 252.15625 L 290.949219 218.023438 L 256.578125 206.566406 C 253.195312 205.433594 251.359375 201.777344 252.492188 198.386719 C 253.617188 195.007812 257.257812 193.15625 260.671875 194.300781 L 299.464844 207.234375 C 302.101562 208.113281 303.878906 210.574219 303.878906 213.363281 L 303.878906 252.15625 C 303.878906 255.722656 300.988281 258.621094 297.414062 258.621094 Z M 297.414062 258.621094 " fill-opacity="1" fill-rule="nonzero"/><path fill="#769fb6" d="M 96.984375 336.207031 L 96.984375 314.339844 L 74.695312 303.195312 C 72.503906 302.101562 71.121094 299.863281 71.121094 297.414062 L 71.121094 265.085938 C 71.121094 261.515625 74.015625 258.621094 77.585938 258.621094 C 81.15625 258.621094 84.050781 261.515625 84.050781 265.085938 L 84.050781 293.417969 L 106.339844 304.566406 C 108.53125 305.65625 109.914062 307.894531 109.914062 310.34375 L 109.914062 336.207031 Z M 96.984375 336.207031 " fill-opacity="1" fill-rule="nonzero"/><path fill="#769fb6" d="M 168.101562 336.207031 L 168.101562 316.808594 L 148.707031 316.808594 C 145.136719 316.808594 142.242188 313.914062 142.242188 310.34375 L 142.242188 284.484375 C 142.242188 280.914062 145.136719 278.015625 148.707031 278.015625 L 168.101562 278.015625 L 168.101562 258.621094 C 168.101562 255.050781 171 252.15625 174.570312 252.15625 C 178.136719 252.15625 181.035156 255.050781 181.035156 258.621094 L 181.035156 284.484375 C 181.035156 288.050781 178.136719 290.949219 174.570312 290.949219 L 155.171875 290.949219 L 155.171875 303.878906 L 174.570312 303.878906 C 178.136719 303.878906 181.035156 306.777344 181.035156 310.34375 L 181.035156 336.207031 Z M 168.101562 336.207031 " fill-opacity="1" fill-rule="nonzero"/><path fill="#769fb6" d="M 116.378906 193.964844 L 90.515625 193.964844 C 86.949219 193.964844 84.050781 191.070312 84.050781 187.5 C 84.050781 183.929688 86.949219 181.035156 90.515625 181.035156 L 116.378906 181.035156 C 119.949219 181.035156 122.84375 183.929688 122.84375 187.5 C 122.84375 191.070312 119.949219 193.964844 116.378906 193.964844 Z M 116.378906 193.964844 " fill-opacity="1" fill-rule="nonzero"/><path fill="#769fb6" d="M 38.792969 181.035156 L 64.65625 181.035156 C 68.222656 181.035156 71.121094 183.929688 71.121094 187.5 C 71.121094 191.070312 68.222656 193.964844 64.65625 193.964844 L 38.792969 193.964844 Z M 38.792969 181.035156 " fill-opacity="1" fill-rule="nonzero"/><path fill="#769fb6" d="M 116.378906 135.777344 L 90.515625 135.777344 C 87.433594 135.777344 84.78125 133.601562 84.179688 130.578125 L 78.75 103.449219 L 64.65625 103.449219 C 61.085938 103.449219 58.191406 100.550781 58.191406 96.984375 C 58.191406 93.414062 61.085938 90.515625 64.65625 90.515625 L 84.050781 90.515625 C 87.136719 90.515625 89.785156 92.691406 90.386719 95.714844 L 95.820312 122.84375 L 116.378906 122.84375 C 119.949219 122.84375 122.84375 125.742188 122.84375 129.308594 C 122.84375 132.878906 119.949219 135.777344 116.378906 135.777344 Z M 116.378906 135.777344 " fill-opacity="1" fill-rule="nonzero"/><path fill="#769fb6" d="M 336.207031 122.84375 L 297.414062 122.84375 C 294.964844 122.84375 292.726562 121.460938 291.628906 119.269531 L 274.023438 84.050781 L 226.292969 84.050781 C 222.71875 84.050781 219.828125 81.15625 219.828125 77.585938 C 219.828125 74.015625 222.71875 71.121094 226.292969 71.121094 L 278.015625 71.121094 C 280.46875 71.121094 282.703125 72.503906 283.804688 74.695312 L 301.410156 109.914062 L 336.207031 109.914062 Z M 336.207031 122.84375 " fill-opacity="1" fill-rule="nonzero"/><path fill="#769fb6" d="M 310.34375 161.636719 L 258.621094 161.636719 C 255.046875 161.636719 252.15625 158.742188 252.15625 155.171875 C 252.15625 151.601562 255.046875 148.707031 258.621094 148.707031 L 304.867188 148.707031 L 310.429688 115.3125 C 311.011719 111.796875 314.347656 109.421875 317.863281 109.996094 C 321.386719 110.585938 323.765625 113.914062 323.179688 117.441406 L 316.714844 156.234375 C 316.203125 159.347656 313.507812 161.636719 310.34375 161.636719 Z M 310.34375 161.636719 " fill-opacity="1" fill-rule="nonzero"/><path fill="#769fb6" d="M 336.207031 187.5 L 294.945312 187.5 L 283.796875 209.785156 C 282.664062 212.054688 280.382812 213.363281 278.011719 213.363281 C 277.039062 213.363281 276.050781 213.140625 275.128906 212.683594 C 271.933594 211.085938 270.640625 207.199219 272.238281 204.007812 L 285.167969 178.144531 C 286.261719 175.953125 288.496094 174.570312 290.949219 174.570312 L 336.207031 174.570312 Z M 336.207031 187.5 " fill-opacity="1" fill-rule="nonzero"/><path fill="#769fb6" d="M 336.207031 303.878906 L 336.207031 310.34375 C 336.207031 312.609375 335.949219 314.742188 335.367188 316.808594 L 290.949219 316.808594 C 288.492188 316.808594 286.292969 315.453125 285.195312 313.253906 L 280.472656 303.878906 L 252.15625 303.878906 C 248.597656 303.878906 245.691406 300.96875 245.691406 297.414062 C 245.691406 293.859375 248.597656 290.949219 252.15625 290.949219 L 284.484375 290.949219 C 286.941406 290.949219 289.136719 292.304688 290.238281 294.503906 L 294.957031 303.878906 Z M 336.207031 303.878906 " fill-opacity="1" fill-rule="nonzero"/><path fill="#769fb6" d="M 135.777344 77.585938 C 135.777344 81.140625 132.867188 84.050781 129.308594 84.050781 L 96.984375 84.050781 C 94.527344 84.050781 92.261719 82.695312 91.226562 80.496094 L 86.507812 71.121094 L 38.792969 71.121094 L 38.792969 64.65625 C 38.792969 62.390625 39.050781 60.257812 39.632812 58.191406 L 90.515625 58.191406 C 92.972656 58.191406 95.238281 59.546875 96.273438 61.746094 L 100.992188 71.121094 L 129.308594 71.121094 C 132.867188 71.121094 135.777344 74.03125 135.777344 77.585938 Z M 135.777344 77.585938 " fill-opacity="1" fill-rule="nonzero"/><path fill="#769fb6" d="M 310.34375 38.792969 L 310.34375 64.65625 C 310.34375 68.210938 307.433594 71.121094 303.878906 71.121094 C 300.324219 71.121094 297.414062 68.210938 297.414062 64.65625 L 297.414062 38.792969 Z M 310.34375 38.792969 " fill-opacity="1" fill-rule="nonzero"/><path fill="#ffc857" d="M 303.878906 265.085938 C 303.878906 265.511719 303.835938 265.929688 303.753906 266.347656 C 303.671875 266.765625 303.550781 267.167969 303.386719 267.558594 C 303.226562 267.953125 303.027344 268.324219 302.789062 268.679688 C 302.554688 269.03125 302.285156 269.359375 301.984375 269.65625 C 301.683594 269.957031 301.359375 270.226562 301.003906 270.460938 C 300.652344 270.699219 300.28125 270.898438 299.886719 271.058594 C 299.496094 271.222656 299.089844 271.34375 298.675781 271.425781 C 298.257812 271.511719 297.839844 271.550781 297.414062 271.550781 C 296.988281 271.550781 296.570312 271.511719 296.152344 271.425781 C 295.734375 271.34375 295.332031 271.222656 294.941406 271.058594 C 294.546875 270.898438 294.175781 270.699219 293.820312 270.460938 C 293.46875 270.226562 293.140625 269.957031 292.84375 269.65625 C 292.542969 269.359375 292.273438 269.03125 292.039062 268.679688 C 291.800781 268.324219 291.601562 267.953125 291.441406 267.558594 C 291.277344 267.167969 291.15625 266.765625 291.074219 266.347656 C 290.988281 265.929688 290.949219 265.511719 290.949219 265.085938 C 290.949219 264.660156 290.988281 264.242188 291.074219 263.824219 C 291.15625 263.410156 291.277344 263.003906 291.441406 262.613281 C 291.601562 262.21875 291.800781 261.847656 292.039062 261.492188 C 292.273438 261.140625 292.542969 260.816406 292.84375 260.515625 C 293.140625 260.214844 293.46875 259.945312 293.820312 259.710938 C 294.175781 259.472656 294.546875 259.273438 294.941406 259.113281 C 295.332031 258.949219 295.734375 258.828125 296.152344 258.746094 C 296.570312 258.660156 296.988281 258.621094 297.414062 258.621094 C 297.839844 258.621094 298.257812 258.660156 298.675781 258.746094 C 299.089844 258.828125 299.496094 258.949219 299.886719 259.113281 C 300.28125 259.273438 300.652344 259.472656 301.003906 259.710938 C 301.359375 259.945312 301.683594 260.214844 301.984375 260.515625 C 302.285156 260.816406 302.554688 261.140625 302.789062 261.492188 C 303.027344 261.847656 303.226562 262.21875 303.386719 262.613281 C 303.550781 263.003906 303.671875 263.410156 303.753906 263.824219 C 303.835938 264.242188 303.878906 264.660156 303.878906 265.085938 Z M 303.878906 265.085938 " fill-opacity="1" fill-rule="nonzero"/><path fill="#ffc857" d="M 297.414062 245.691406 C 286.71875 245.691406 278.015625 254.390625 278.015625 265.085938 C 278.015625 275.78125 286.71875 284.484375 297.414062 284.484375 C 308.109375 284.484375 316.808594 275.78125 316.808594 265.085938 C 316.808594 254.390625 308.109375 245.691406 297.414062 245.691406 Z M 297.414062 271.550781 C 293.84375 271.550781 290.949219 268.648438 290.949219 265.085938 C 290.949219 261.523438 293.84375 258.621094 297.414062 258.621094 C 300.984375 258.621094 303.878906 261.523438 303.878906 265.085938 C 303.878906 268.648438 300.984375 271.550781 297.414062 271.550781 Z M 297.414062 271.550781 " fill-opacity="1" fill-rule="nonzero"/><path fill="#ffc857" d="M 84.050781 252.15625 C 84.050781 252.578125 84.011719 253 83.925781 253.417969 C 83.84375 253.832031 83.722656 254.238281 83.558594 254.628906 C 83.398438 255.023438 83.199219 255.394531 82.960938 255.746094 C 82.726562 256.101562 82.457031 256.425781 82.15625 256.726562 C 81.859375 257.027344 81.53125 257.296875 81.179688 257.53125 C 80.824219 257.765625 80.453125 257.964844 80.058594 258.128906 C 79.667969 258.289062 79.265625 258.414062 78.847656 258.496094 C 78.429688 258.578125 78.011719 258.621094 77.585938 258.621094 C 77.160156 258.621094 76.742188 258.578125 76.324219 258.496094 C 75.910156 258.414062 75.503906 258.289062 75.113281 258.128906 C 74.71875 257.964844 74.347656 257.765625 73.996094 257.53125 C 73.640625 257.296875 73.316406 257.027344 73.015625 256.726562 C 72.714844 256.425781 72.445312 256.101562 72.210938 255.746094 C 71.972656 255.394531 71.773438 255.023438 71.613281 254.628906 C 71.449219 254.238281 71.328125 253.832031 71.246094 253.417969 C 71.160156 253 71.121094 252.578125 71.121094 252.15625 C 71.121094 251.730469 71.160156 251.308594 71.246094 250.894531 C 71.328125 250.476562 71.449219 250.074219 71.613281 249.679688 C 71.773438 249.289062 71.972656 248.917969 72.210938 248.5625 C 72.445312 248.210938 72.714844 247.882812 73.015625 247.582031 C 73.316406 247.28125 73.640625 247.015625 73.996094 246.777344 C 74.347656 246.542969 74.71875 246.34375 75.113281 246.183594 C 75.503906 246.019531 75.910156 245.898438 76.324219 245.8125 C 76.742188 245.730469 77.160156 245.691406 77.585938 245.691406 C 78.011719 245.691406 78.429688 245.730469 78.847656 245.8125 C 79.265625 245.898438 79.667969 246.019531 80.058594 246.183594 C 80.453125 246.34375 80.824219 246.542969 81.179688 246.777344 C 81.53125 247.015625 81.859375 247.28125 82.15625 247.582031 C 82.457031 247.882812 82.726562 248.210938 82.960938 248.5625 C 83.199219 248.917969 83.398438 249.289062 83.558594 249.679688 C 83.722656 250.074219 83.84375 250.476562 83.925781 250.894531 C 84.011719 251.308594 84.050781 251.730469 84.050781 252.15625 Z M 84.050781 252.15625 " fill-opacity="1" fill-rule="nonzero"/><path fill="#ffc857" d="M 77.585938 232.757812 C 66.890625 232.757812 58.191406 241.460938 58.191406 252.15625 C 58.191406 262.847656 66.890625 271.550781 77.585938 271.550781 C 88.28125 271.550781 96.984375 262.847656 96.984375 252.15625 C 96.984375 241.460938 88.28125 232.757812 77.585938 232.757812 Z M 77.585938 258.621094 C 74.023438 258.621094 71.121094 255.71875 71.121094 252.15625 C 71.121094 248.59375 74.023438 245.691406 77.585938 245.691406 C 81.148438 245.691406 84.050781 248.59375 84.050781 252.15625 C 84.050781 255.71875 81.148438 258.621094 77.585938 258.621094 Z M 77.585938 258.621094 " fill-opacity="1" fill-rule="nonzero"/><path fill="#ffc857" d="M 219.828125 77.585938 C 219.828125 78.011719 219.785156 78.429688 219.703125 78.847656 C 219.621094 79.265625 219.496094 79.667969 219.335938 80.058594 C 219.171875 80.453125 218.972656 80.824219 218.738281 81.179688 C 218.503906 81.53125 218.234375 81.859375 217.933594 82.15625 C 217.632812 82.457031 217.308594 82.726562 216.953125 82.960938 C 216.601562 83.199219 216.226562 83.398438 215.835938 83.558594 C 215.445312 83.722656 215.039062 83.84375 214.625 83.925781 C 214.207031 84.011719 213.785156 84.050781 213.363281 84.050781 C 212.9375 84.050781 212.515625 84.011719 212.101562 83.925781 C 211.683594 83.84375 211.28125 83.722656 210.886719 83.558594 C 210.496094 83.398438 210.121094 83.199219 209.769531 82.960938 C 209.417969 82.726562 209.089844 82.457031 208.789062 82.15625 C 208.488281 81.859375 208.222656 81.53125 207.984375 81.179688 C 207.75 80.824219 207.550781 80.453125 207.386719 80.058594 C 207.226562 79.667969 207.105469 79.265625 207.019531 78.847656 C 206.9375 78.429688 206.898438 78.011719 206.898438 77.585938 C 206.898438 77.160156 206.9375 76.742188 207.019531 76.324219 C 207.105469 75.910156 207.226562 75.503906 207.386719 75.113281 C 207.550781 74.71875 207.75 74.347656 207.984375 73.996094 C 208.222656 73.640625 208.488281 73.316406 208.789062 73.015625 C 209.089844 72.714844 209.417969 72.445312 209.769531 72.210938 C 210.121094 71.972656 210.496094 71.773438 210.886719 71.613281 C 211.28125 71.449219 211.683594 71.328125 212.101562 71.246094 C 212.515625 71.160156 212.9375 71.121094 213.363281 71.121094 C 213.785156 71.121094 214.207031 71.160156 214.625 71.246094 C 215.039062 71.328125 215.445312 71.449219 215.835938 71.613281 C 216.226562 71.773438 216.601562 71.972656 216.953125 72.210938 C 217.308594 72.445312 217.632812 72.714844 217.933594 73.015625 C 218.234375 73.316406 218.503906 73.640625 218.738281 73.992188 C 218.972656 74.347656 219.171875 74.71875 219.335938 75.113281 C 219.496094 75.503906 219.621094 75.910156 219.703125 76.324219 C 219.785156 76.742188 219.828125 77.160156 219.828125 77.585938 Z M 219.828125 77.585938 " fill-opacity="1" fill-rule="nonzero"/><path fill="#ffc857" d="M 213.363281 96.984375 C 224.054688 96.984375 232.757812 88.28125 232.757812 77.585938 C 232.757812 66.890625 224.054688 58.191406 213.363281 58.191406 C 202.667969 58.191406 193.964844 66.890625 193.964844 77.585938 C 193.964844 88.28125 202.667969 96.984375 213.363281 96.984375 Z M 213.363281 71.121094 C 216.929688 71.121094 219.828125 74.023438 219.828125 77.585938 C 219.828125 81.148438 216.929688 84.050781 213.363281 84.050781 C 209.792969 84.050781 206.898438 81.148438 206.898438 77.585938 C 206.898438 74.023438 209.792969 71.121094 213.363281 71.121094 Z M 213.363281 71.121094 " fill-opacity="1" fill-rule="nonzero"/><path fill="#ffc857" d="M 84.050781 187.5 C 84.050781 187.925781 84.011719 188.34375 83.925781 188.761719 C 83.84375 189.175781 83.722656 189.582031 83.558594 189.972656 C 83.398438 190.367188 83.199219 190.738281 82.960938 191.09375 C 82.726562 191.445312 82.457031 191.773438 82.15625 192.070312 C 81.859375 192.371094 81.53125 192.640625 81.179688 192.875 C 80.824219 193.113281 80.453125 193.3125 80.058594 193.472656 C 79.667969 193.636719 79.265625 193.757812 78.847656 193.839844 C 78.429688 193.925781 78.011719 193.964844 77.585938 193.964844 C 77.160156 193.964844 76.742188 193.925781 76.324219 193.839844 C 75.910156 193.757812 75.503906 193.636719 75.113281 193.472656 C 74.71875 193.3125 74.347656 193.113281 73.996094 192.875 C 73.640625 192.640625 73.316406 192.371094 73.015625 192.070312 C 72.714844 191.773438 72.445312 191.445312 72.210938 191.09375 C 71.972656 190.738281 71.773438 190.367188 71.613281 189.972656 C 71.449219 189.582031 71.328125 189.175781 71.246094 188.761719 C 71.160156 188.34375 71.121094 187.925781 71.121094 187.5 C 71.121094 187.074219 71.160156 186.65625 71.246094 186.238281 C 71.328125 185.820312 71.449219 185.417969 71.613281 185.027344 C 71.773438 184.632812 71.972656 184.261719 72.210938 183.90625 C 72.445312 183.554688 72.714844 183.226562 73.015625 182.929688 C 73.316406 182.628906 73.640625 182.359375 73.996094 182.125 C 74.347656 181.886719 74.71875 181.6875 75.113281 181.527344 C 75.503906 181.363281 75.910156 181.242188 76.324219 181.160156 C 76.742188 181.074219 77.160156 181.035156 77.585938 181.035156 C 78.011719 181.035156 78.429688 181.074219 78.847656 181.160156 C 79.265625 181.242188 79.667969 181.363281 80.058594 181.527344 C 80.453125 181.6875 80.824219 181.886719 81.179688 182.125 C 81.53125 182.359375 81.859375 182.628906 82.15625 182.929688 C 82.457031 183.226562 82.726562 183.554688 82.960938 183.90625 C 83.199219 184.261719 83.398438 184.632812 83.558594 185.027344 C 83.722656 185.417969 83.84375 185.820312 83.925781 186.238281 C 84.011719 186.65625 84.050781 187.074219 84.050781 187.5 Z M 84.050781 187.5 " fill-opacity="1" fill-rule="nonzero"/><path fill="#ffc857" d="M 77.585938 168.101562 C 66.890625 168.101562 58.191406 176.804688 58.191406 187.5 C 58.191406 198.195312 66.890625 206.898438 77.585938 206.898438 C 88.28125 206.898438 96.984375 198.195312 96.984375 187.5 C 96.984375 176.804688 88.28125 168.101562 77.585938 168.101562 Z M 77.585938 193.964844 C 74.023438 193.964844 71.121094 191.0625 71.121094 187.5 C 71.121094 183.9375 74.023438 181.035156 77.585938 181.035156 C 81.148438 181.035156 84.050781 183.9375 84.050781 187.5 C 84.050781 191.0625 81.148438 193.964844 77.585938 193.964844 Z M 77.585938 193.964844 " fill-opacity="1" fill-rule="nonzero"/><path fill="#ffc857" d="M 245.691406 297.414062 C 245.691406 297.839844 245.648438 298.257812 245.566406 298.675781 C 245.484375 299.089844 245.359375 299.496094 245.199219 299.886719 C 245.035156 300.28125 244.835938 300.652344 244.601562 301.003906 C 244.363281 301.359375 244.097656 301.683594 243.796875 301.984375 C 243.496094 302.285156 243.167969 302.554688 242.816406 302.789062 C 242.464844 303.027344 242.089844 303.226562 241.699219 303.386719 C 241.304688 303.550781 240.902344 303.671875 240.484375 303.753906 C 240.070312 303.835938 239.648438 303.878906 239.222656 303.878906 C 238.800781 303.878906 238.378906 303.835938 237.960938 303.753906 C 237.546875 303.671875 237.140625 303.550781 236.75 303.386719 C 236.359375 303.226562 235.984375 303.027344 235.632812 302.789062 C 235.277344 302.554688 234.953125 302.285156 234.652344 301.984375 C 234.351562 301.683594 234.085938 301.359375 233.847656 301.003906 C 233.613281 300.652344 233.414062 300.28125 233.25 299.886719 C 233.089844 299.496094 232.964844 299.089844 232.882812 298.675781 C 232.800781 298.257812 232.757812 297.839844 232.757812 297.414062 C 232.757812 296.988281 232.800781 296.570312 232.882812 296.152344 C 232.964844 295.734375 233.089844 295.332031 233.25 294.941406 C 233.414062 294.546875 233.613281 294.175781 233.847656 293.820312 C 234.085938 293.46875 234.351562 293.140625 234.652344 292.84375 C 234.953125 292.542969 235.277344 292.273438 235.632812 292.039062 C 235.984375 291.800781 236.359375 291.601562 236.75 291.441406 C 237.140625 291.277344 237.546875 291.15625 237.960938 291.074219 C 238.378906 290.988281 238.800781 290.949219 239.222656 290.949219 C 239.648438 290.949219 240.070312 290.988281 240.484375 291.074219 C 240.902344 291.15625 241.304688 291.277344 241.699219 291.441406 C 242.089844 291.601562 242.464844 291.800781 242.816406 292.039062 C 243.167969 292.273438 243.496094 292.542969 243.796875 292.84375 C 244.097656 293.140625 244.363281 293.46875 244.601562 293.820312 C 244.835938 294.175781 245.035156 294.546875 245.199219 294.941406 C 245.359375 295.332031 245.484375 295.734375 245.566406 296.152344 C 245.648438 296.570312 245.691406 296.988281 245.691406 297.414062 Z M 245.691406 297.414062 " fill-opacity="1" fill-rule="nonzero"/><path fill="#ffc857" d="M 239.222656 278.015625 C 228.53125 278.015625 219.828125 286.71875 219.828125 297.414062 C 219.828125 308.109375 228.53125 316.808594 239.222656 316.808594 C 249.917969 316.808594 258.621094 308.109375 258.621094 297.414062 C 258.621094 286.71875 249.917969 278.015625 239.222656 278.015625 Z M 239.222656 303.878906 C 235.65625 303.878906 232.757812 300.976562 232.757812 297.414062 C 232.757812 293.851562 235.65625 290.949219 239.222656 290.949219 C 242.792969 290.949219 245.691406 293.851562 245.691406 297.414062 C 245.691406 300.976562 242.792969 303.878906 239.222656 303.878906 Z M 239.222656 303.878906 " fill-opacity="1" fill-rule="nonzero"/><path fill="#4f7992" d="M 245.691406 116.378906 L 129.308594 116.378906 C 122.164062 116.378906 116.378906 122.164062 116.378906 129.308594 L 116.378906 245.691406 C 116.378906 252.835938 122.164062 258.621094 129.308594 258.621094 L 245.691406 258.621094 C 252.835938 258.621094 258.621094 252.835938 258.621094 245.691406 L 258.621094 129.308594 C 258.621094 122.164062 252.835938 116.378906 245.691406 116.378906 Z M 245.691406 116.378906 " fill-opacity="1" fill-rule="nonzero"/><path fill="#ffc857" d="M 148.707031 77.585938 C 148.707031 78.011719 148.664062 78.429688 148.582031 78.847656 C 148.5 79.265625 148.378906 79.667969 148.214844 80.058594 C 148.050781 80.453125 147.851562 80.824219 147.617188 81.179688 C 147.382812 81.53125 147.113281 81.859375 146.8125 82.15625 C 146.511719 82.457031 146.1875 82.726562 145.832031 82.960938 C 145.480469 83.199219 145.109375 83.398438 144.714844 83.558594 C 144.324219 83.722656 143.917969 83.84375 143.503906 83.925781 C 143.085938 84.011719 142.664062 84.050781 142.242188 84.050781 C 141.816406 84.050781 141.394531 84.011719 140.980469 83.925781 C 140.5625 83.84375 140.160156 83.722656 139.765625 83.558594 C 139.375 83.398438 139.003906 83.199219 138.648438 82.960938 C 138.296875 82.726562 137.96875 82.457031 137.667969 82.15625 C 137.371094 81.859375 137.101562 81.53125 136.867188 81.179688 C 136.628906 80.824219 136.429688 80.453125 136.269531 80.058594 C 136.105469 79.667969 135.984375 79.265625 135.898438 78.847656 C 135.816406 78.429688 135.777344 78.011719 135.777344 77.585938 C 135.777344 77.160156 135.816406 76.742188 135.898438 76.324219 C 135.984375 75.910156 136.105469 75.503906 136.269531 75.113281 C 136.429688 74.71875 136.628906 74.347656 136.867188 73.996094 C 137.101562 73.640625 137.371094 73.316406 137.667969 73.015625 C 137.96875 72.714844 138.296875 72.445312 138.648438 72.210938 C 139.003906 71.972656 139.375 71.773438 139.765625 71.613281 C 140.160156 71.449219 140.5625 71.328125 140.980469 71.246094 C 141.394531 71.160156 141.816406 71.121094 142.242188 71.121094 C 142.664062 71.121094 143.085938 71.160156 143.503906 71.246094 C 143.917969 71.328125 144.324219 71.449219 144.714844 71.613281 C 145.109375 71.773438 145.480469 71.972656 145.832031 72.210938 C 146.1875 72.445312 146.511719 72.714844 146.8125 73.015625 C 147.113281 73.316406 147.382812 73.640625 147.617188 73.992188 C 147.851562 74.347656 148.050781 74.71875 148.214844 75.113281 C 148.378906 75.503906 148.5 75.910156 148.582031 76.324219 C 148.664062 76.742188 148.707031 77.160156 148.707031 77.585938 Z M 148.707031 77.585938 " fill-opacity="1" fill-rule="nonzero"/><path fill="#ffc857" d="M 142.242188 96.984375 C 152.933594 96.984375 161.636719 88.28125 161.636719 77.585938 C 161.636719 66.890625 152.933594 58.191406 142.242188 58.191406 C 131.546875 58.191406 122.84375 66.890625 122.84375 77.585938 C 122.84375 88.28125 131.546875 96.984375 142.242188 96.984375 Z M 142.242188 71.121094 C 145.804688 71.121094 148.707031 74.023438 148.707031 77.585938 C 148.707031 81.148438 145.804688 84.050781 142.242188 84.050781 C 138.679688 84.050781 135.777344 81.148438 135.777344 77.585938 C 135.777344 74.023438 138.679688 71.121094 142.242188 71.121094 Z M 142.242188 71.121094 " fill-opacity="1" fill-rule="nonzero"/><path fill="#a2bdcd" d="M 181.035156 219.828125 C 177.464844 219.828125 174.570312 216.929688 174.570312 213.363281 L 174.570312 181.035156 C 174.570312 173.902344 168.769531 168.101562 161.636719 168.101562 C 154.507812 168.101562 148.707031 173.902344 148.707031 181.035156 L 148.707031 213.363281 C 148.707031 216.929688 145.808594 219.828125 142.242188 219.828125 C 138.671875 219.828125 135.777344 216.929688 135.777344 213.363281 L 135.777344 181.035156 C 135.777344 166.773438 147.375 155.171875 161.636719 155.171875 C 175.902344 155.171875 187.5 166.773438 187.5 181.035156 L 187.5 213.363281 C 187.5 216.929688 184.601562 219.828125 181.035156 219.828125 Z M 181.035156 219.828125 " fill-opacity="1" fill-rule="nonzero"/><path fill="#a2bdcd" d="M 181.035156 200.429688 L 142.242188 200.429688 C 138.671875 200.429688 135.777344 197.535156 135.777344 193.964844 C 135.777344 190.398438 138.671875 187.5 142.242188 187.5 L 181.035156 187.5 C 184.601562 187.5 187.5 190.398438 187.5 193.964844 C 187.5 197.535156 184.601562 200.429688 181.035156 200.429688 Z M 181.035156 200.429688 " fill-opacity="1" fill-rule="nonzero"/><path fill="#a2bdcd" d="M 232.757812 168.101562 L 206.898438 168.101562 C 203.320312 168.101562 200.429688 165.207031 200.429688 161.636719 C 200.429688 158.070312 203.320312 155.171875 206.898438 155.171875 L 232.757812 155.171875 C 236.335938 155.171875 239.222656 158.070312 239.222656 161.636719 C 239.222656 165.207031 236.335938 168.101562 232.757812 168.101562 Z M 232.757812 168.101562 " fill-opacity="1" fill-rule="nonzero"/><path fill="#a2bdcd" d="M 232.757812 219.828125 L 206.898438 219.828125 C 203.320312 219.828125 200.429688 216.929688 200.429688 213.363281 C 200.429688 209.792969 203.320312 206.898438 206.898438 206.898438 L 232.757812 206.898438 C 236.335938 206.898438 239.222656 209.792969 239.222656 213.363281 C 239.222656 216.929688 236.335938 219.828125 232.757812 219.828125 Z M 232.757812 219.828125 " fill-opacity="1" fill-rule="nonzero"/><path fill="#a2bdcd" d="M 219.828125 219.828125 C 216.253906 219.828125 213.363281 216.929688 213.363281 213.363281 L 213.363281 161.636719 C 213.363281 158.070312 216.253906 155.171875 219.828125 155.171875 C 223.402344 155.171875 226.292969 158.070312 226.292969 161.636719 L 226.292969 213.363281 C 226.292969 216.929688 223.402344 219.828125 219.828125 219.828125 Z M 219.828125 219.828125 " fill-opacity="1" fill-rule="nonzero"/><path fill="#ffdd99" d="M 226.292969 77.585938 C 226.292969 78.433594 226.210938 79.277344 226.042969 80.109375 C 225.878906 80.941406 225.632812 81.75 225.308594 82.535156 C 224.984375 83.320312 224.585938 84.0625 224.113281 84.769531 C 223.640625 85.476562 223.105469 86.128906 222.503906 86.730469 C 221.90625 87.332031 221.253906 87.867188 220.546875 88.339844 C 219.839844 88.808594 219.09375 89.207031 218.308594 89.53125 C 217.527344 89.859375 216.71875 90.101562 215.886719 90.269531 C 215.050781 90.433594 214.210938 90.515625 213.363281 90.515625 C 212.511719 90.515625 211.671875 90.433594 210.839844 90.269531 C 210.007812 90.101562 209.199219 89.859375 208.414062 89.53125 C 207.628906 89.207031 206.882812 88.808594 206.179688 88.339844 C 205.472656 87.867188 204.820312 87.332031 204.21875 86.730469 C 203.617188 86.128906 203.082031 85.476562 202.609375 84.769531 C 202.136719 84.0625 201.738281 83.320312 201.414062 82.535156 C 201.089844 81.75 200.84375 80.941406 200.679688 80.109375 C 200.515625 79.277344 200.429688 78.433594 200.429688 77.585938 C 200.429688 76.738281 200.515625 75.894531 200.679688 75.0625 C 200.84375 74.230469 201.089844 73.421875 201.414062 72.636719 C 201.738281 71.851562 202.136719 71.109375 202.609375 70.402344 C 203.082031 69.695312 203.617188 69.042969 204.21875 68.441406 C 204.820312 67.84375 205.472656 67.304688 206.179688 66.835938 C 206.882812 66.363281 207.628906 65.964844 208.414062 65.640625 C 209.199219 65.316406 210.007812 65.070312 210.839844 64.902344 C 211.671875 64.738281 212.511719 64.65625 213.363281 64.65625 C 214.210938 64.65625 215.050781 64.738281 215.886719 64.902344 C 216.71875 65.070312 217.527344 65.316406 218.308594 65.640625 C 219.09375 65.964844 219.839844 66.363281 220.546875 66.835938 C 221.253906 67.304688 221.90625 67.84375 222.503906 68.441406 C 223.105469 69.042969 223.640625 69.695312 224.113281 70.402344 C 224.585938 71.109375 224.984375 71.851562 225.308594 72.636719 C 225.632812 73.421875 225.878906 74.230469 226.042969 75.0625 C 226.210938 75.894531 226.292969 76.738281 226.292969 77.585938 Z M 226.292969 77.585938 " fill-opacity="1" fill-rule="nonzero"/><path fill="#ffdd99" d="M 90.515625 187.5 C 90.515625 188.347656 90.433594 189.191406 90.269531 190.023438 C 90.101562 190.855469 89.859375 191.664062 89.53125 192.449219 C 89.207031 193.234375 88.808594 193.976562 88.339844 194.683594 C 87.867188 195.390625 87.332031 196.042969 86.730469 196.644531 C 86.128906 197.242188 85.476562 197.78125 84.769531 198.25 C 84.0625 198.722656 83.320312 199.121094 82.535156 199.445312 C 81.75 199.773438 80.941406 200.015625 80.109375 200.183594 C 79.277344 200.347656 78.433594 200.429688 77.585938 200.429688 C 76.738281 200.429688 75.894531 200.347656 75.0625 200.183594 C 74.230469 200.015625 73.421875 199.773438 72.636719 199.445312 C 71.851562 199.121094 71.109375 198.722656 70.402344 198.25 C 69.695312 197.78125 69.042969 197.242188 68.441406 196.644531 C 67.84375 196.042969 67.304688 195.390625 66.835938 194.683594 C 66.363281 193.976562 65.964844 193.234375 65.640625 192.449219 C 65.316406 191.664062 65.070312 190.855469 64.902344 190.023438 C 64.738281 189.191406 64.65625 188.347656 64.65625 187.5 C 64.65625 186.652344 64.738281 185.808594 64.902344 184.976562 C 65.070312 184.144531 65.316406 183.335938 65.640625 182.550781 C 65.964844 181.765625 66.363281 181.023438 66.835938 180.316406 C 67.304688 179.609375 67.84375 178.957031 68.441406 178.355469 C 69.042969 177.757812 69.695312 177.21875 70.402344 176.75 C 71.109375 176.277344 71.851562 175.878906 72.636719 175.554688 C 73.421875 175.226562 74.230469 174.984375 75.0625 174.816406 C 75.894531 174.652344 76.738281 174.570312 77.585938 174.570312 C 78.433594 174.570312 79.277344 174.652344 80.109375 174.816406 C 80.941406 174.984375 81.75 175.226562 82.535156 175.554688 C 83.320312 175.878906 84.0625 176.277344 84.769531 176.75 C 85.476562 177.21875 86.128906 177.757812 86.730469 178.355469 C 87.332031 178.957031 87.867188 179.609375 88.339844 180.316406 C 88.808594 181.023438 89.207031 181.765625 89.53125 182.550781 C 89.859375 183.335938 90.101562 184.144531 90.269531 184.976562 C 90.433594 185.808594 90.515625 186.652344 90.515625 187.5 Z M 90.515625 187.5 " fill-opacity="1" fill-rule="nonzero"/><path fill="#ffdd99" d="M 90.515625 252.15625 C 90.515625 253.003906 90.433594 253.84375 90.269531 254.679688 C 90.101562 255.511719 89.859375 256.320312 89.53125 257.105469 C 89.207031 257.886719 88.808594 258.632812 88.339844 259.339844 C 87.867188 260.046875 87.332031 260.699219 86.730469 261.296875 C 86.128906 261.898438 85.476562 262.433594 84.769531 262.90625 C 84.0625 263.378906 83.320312 263.777344 82.535156 264.101562 C 81.75 264.425781 80.941406 264.671875 80.109375 264.835938 C 79.277344 265.003906 78.433594 265.085938 77.585938 265.085938 C 76.738281 265.085938 75.894531 265.003906 75.0625 264.835938 C 74.230469 264.671875 73.421875 264.425781 72.636719 264.101562 C 71.851562 263.777344 71.109375 263.378906 70.402344 262.90625 C 69.695312 262.433594 69.042969 261.898438 68.441406 261.296875 C 67.84375 260.699219 67.304688 260.046875 66.835938 259.339844 C 66.363281 258.632812 65.964844 257.886719 65.640625 257.105469 C 65.316406 256.320312 65.070312 255.511719 64.902344 254.679688 C 64.738281 253.84375 64.65625 253.003906 64.65625 252.15625 C 64.65625 251.304688 64.738281 250.464844 64.902344 249.632812 C 65.070312 248.800781 65.316406 247.992188 65.640625 247.207031 C 65.964844 246.421875 66.363281 245.675781 66.835938 244.972656 C 67.304688 244.265625 67.84375 243.613281 68.441406 243.011719 C 69.042969 242.410156 69.695312 241.875 70.402344 241.402344 C 71.109375 240.933594 71.851562 240.535156 72.636719 240.207031 C 73.421875 239.882812 74.230469 239.636719 75.0625 239.472656 C 75.894531 239.308594 76.738281 239.222656 77.585938 239.222656 C 78.433594 239.222656 79.277344 239.308594 80.109375 239.472656 C 80.941406 239.636719 81.75 239.882812 82.535156 240.207031 C 83.320312 240.535156 84.0625 240.933594 84.769531 241.402344 C 85.476562 241.875 86.128906 242.410156 86.730469 243.011719 C 87.332031 243.613281 87.867188 244.265625 88.339844 244.972656 C 88.808594 245.675781 89.207031 246.421875 89.53125 247.207031 C 89.859375 247.992188 90.101562 248.800781 90.269531 249.632812 C 90.433594 250.464844 90.515625 251.304688 90.515625 252.15625 Z M 90.515625 252.15625 " fill-opacity="1" fill-rule="nonzero"/><path fill="#ffdd99" d="M 252.15625 297.414062 C 252.15625 298.261719 252.074219 299.105469 251.90625 299.9375 C 251.742188 300.769531 251.496094 301.578125 251.171875 302.363281 C 250.847656 303.148438 250.449219 303.890625 249.976562 304.597656 C 249.503906 305.304688 248.96875 305.957031 248.367188 306.558594 C 247.765625 307.15625 247.113281 307.695312 246.410156 308.164062 C 245.703125 308.636719 244.957031 309.035156 244.171875 309.359375 C 243.386719 309.683594 242.578125 309.929688 241.746094 310.097656 C 240.914062 310.261719 240.074219 310.34375 239.222656 310.34375 C 238.375 310.34375 237.535156 310.261719 236.703125 310.097656 C 235.867188 309.929688 235.058594 309.683594 234.277344 309.359375 C 233.492188 309.035156 232.746094 308.636719 232.039062 308.164062 C 231.335938 307.695312 230.679688 307.15625 230.082031 306.558594 C 229.480469 305.957031 228.945312 305.304688 228.472656 304.597656 C 228 303.890625 227.601562 303.148438 227.277344 302.363281 C 226.953125 301.578125 226.707031 300.769531 226.542969 299.9375 C 226.375 299.105469 226.292969 298.261719 226.292969 297.414062 C 226.292969 296.566406 226.375 295.722656 226.542969 294.890625 C 226.707031 294.058594 226.953125 293.25 227.277344 292.464844 C 227.601562 291.679688 228 290.9375 228.472656 290.230469 C 228.945312 289.523438 229.480469 288.871094 230.082031 288.269531 C 230.679688 287.667969 231.335938 287.132812 232.039062 286.660156 C 232.746094 286.191406 233.492188 285.792969 234.277344 285.46875 C 235.058594 285.140625 235.867188 284.898438 236.703125 284.730469 C 237.535156 284.566406 238.375 284.484375 239.222656 284.484375 C 240.074219 284.484375 240.914062 284.566406 241.746094 284.730469 C 242.578125 284.898438 243.386719 285.140625 244.171875 285.46875 C 244.957031 285.792969 245.703125 286.191406 246.410156 286.660156 C 247.113281 287.132812 247.765625 287.667969 248.367188 288.269531 C 248.96875 288.871094 249.503906 289.523438 249.976562 290.230469 C 250.449219 290.9375 250.847656 291.679688 251.171875 292.464844 C 251.496094 293.25 251.742188 294.058594 251.90625 294.890625 C 252.074219 295.722656 252.15625 296.566406 252.15625 297.414062 Z M 252.15625 297.414062 " fill-opacity="1" fill-rule="nonzero"/><path fill="#ffdd99" d="M 310.34375 265.085938 C 310.34375 265.933594 310.261719 266.777344 310.097656 267.609375 C 309.929688 268.441406 309.683594 269.25 309.359375 270.035156 C 309.035156 270.820312 308.636719 271.5625 308.164062 272.269531 C 307.695312 272.976562 307.15625 273.628906 306.558594 274.230469 C 305.957031 274.832031 305.304688 275.367188 304.597656 275.839844 C 303.890625 276.308594 303.148438 276.707031 302.363281 277.03125 C 301.578125 277.359375 300.769531 277.601562 299.9375 277.769531 C 299.105469 277.933594 298.261719 278.015625 297.414062 278.015625 C 296.566406 278.015625 295.722656 277.933594 294.890625 277.769531 C 294.058594 277.601562 293.25 277.359375 292.464844 277.03125 C 291.679688 276.707031 290.9375 276.308594 290.230469 275.839844 C 289.523438 275.367188 288.871094 274.832031 288.269531 274.230469 C 287.667969 273.628906 287.132812 272.976562 286.660156 272.269531 C 286.191406 271.5625 285.792969 270.820312 285.46875 270.035156 C 285.140625 269.25 284.898438 268.441406 284.730469 267.609375 C 284.566406 266.777344 284.484375 265.933594 284.484375 265.085938 C 284.484375 264.238281 284.566406 263.394531 284.730469 262.5625 C 284.898438 261.730469 285.140625 260.921875 285.46875 260.136719 C 285.792969 259.351562 286.191406 258.609375 286.660156 257.902344 C 287.132812 257.195312 287.667969 256.542969 288.269531 255.941406 C 288.871094 255.34375 289.523438 254.804688 290.230469 254.335938 C 290.9375 253.863281 291.679688 253.464844 292.464844 253.140625 C 293.25 252.816406 294.058594 252.570312 294.890625 252.402344 C 295.722656 252.238281 296.566406 252.15625 297.414062 252.15625 C 298.261719 252.15625 299.105469 252.238281 299.9375 252.402344 C 300.769531 252.570312 301.578125 252.816406 302.363281 253.140625 C 303.148438 253.464844 303.890625 253.863281 304.597656 254.335938 C 305.304688 254.804688 305.957031 255.34375 306.558594 255.941406 C 307.15625 256.542969 307.695312 257.195312 308.164062 257.902344 C 308.636719 258.609375 309.035156 259.351562 309.359375 260.136719 C 309.683594 260.921875 309.929688 261.730469 310.097656 262.5625 C 310.261719 263.394531 310.34375 264.238281 310.34375 265.085938 Z M 310.34375 265.085938 " fill-opacity="1" fill-rule="nonzero"/><path fill="#ffdd99" d="M 155.171875 77.585938 C 155.171875 78.433594 155.089844 79.277344 154.925781 80.109375 C 154.757812 80.941406 154.511719 81.75 154.1875 82.535156 C 153.863281 83.320312 153.464844 84.0625 152.992188 84.769531 C 152.519531 85.476562 151.984375 86.128906 151.386719 86.730469 C 150.785156 87.332031 150.132812 87.867188 149.425781 88.339844 C 148.71875 88.808594 147.972656 89.207031 147.191406 89.53125 C 146.40625 89.859375 145.597656 90.101562 144.765625 90.269531 C 143.929688 90.433594 143.089844 90.515625 142.242188 90.515625 C 141.390625 90.515625 140.550781 90.433594 139.71875 90.269531 C 138.886719 90.101562 138.078125 89.859375 137.292969 89.53125 C 136.507812 89.207031 135.761719 88.808594 135.058594 88.339844 C 134.351562 87.867188 133.699219 87.332031 133.097656 86.730469 C 132.496094 86.128906 131.960938 85.476562 131.488281 84.769531 C 131.019531 84.0625 130.621094 83.320312 130.292969 82.535156 C 129.96875 81.75 129.722656 80.941406 129.558594 80.109375 C 129.394531 79.277344 129.308594 78.433594 129.308594 77.585938 C 129.308594 76.738281 129.394531 75.894531 129.558594 75.0625 C 129.722656 74.230469 129.96875 73.421875 130.292969 72.636719 C 130.621094 71.851562 131.019531 71.109375 131.488281 70.402344 C 131.960938 69.695312 132.496094 69.042969 133.097656 68.441406 C 133.699219 67.84375 134.351562 67.304688 135.058594 66.835938 C 135.761719 66.363281 136.507812 65.964844 137.292969 65.640625 C 138.078125 65.316406 138.886719 65.070312 139.71875 64.902344 C 140.550781 64.738281 141.390625 64.65625 142.242188 64.65625 C 143.089844 64.65625 143.929688 64.738281 144.765625 64.902344 C 145.597656 65.070312 146.40625 65.316406 147.191406 65.640625 C 147.972656 65.964844 148.71875 66.363281 149.425781 66.835938 C 150.132812 67.304688 150.785156 67.84375 151.386719 68.441406 C 151.984375 69.042969 152.519531 69.695312 152.992188 70.402344 C 153.464844 71.109375 153.863281 71.851562 154.1875 72.636719 C 154.511719 73.421875 154.757812 74.230469 154.925781 75.0625 C 155.089844 75.894531 155.171875 76.738281 155.171875 77.585938 Z M 155.171875 77.585938 " fill-opacity="1" fill-rule="nonzero"/><path fill="#d0d8da" d="M 25.863281 174.570312 L 38.792969 174.570312 L 38.792969 200.429688 L 25.863281 200.429688 Z M 25.863281 174.570312 " fill-opacity="1" fill-rule="nonzero"/><path fill="#d0d8da" d="M 25.863281 232.757812 L 38.792969 232.757812 L 38.792969 258.621094 L 25.863281 258.621094 Z M 25.863281 232.757812 " fill-opacity="1" fill-rule="nonzero"/><path fill="#d0d8da" d="M 84.050781 349.136719 L 84.050781 336.207031 L 64.65625 336.207031 C 62.410156 336.207031 60.265625 335.832031 58.191406 335.296875 L 58.191406 348.554688 C 60.296875 348.910156 62.449219 349.136719 64.65625 349.136719 Z M 84.050781 349.136719 " fill-opacity="1" fill-rule="nonzero"/><path fill="#d0d8da" d="M 25.863281 116.378906 L 38.792969 116.378906 L 38.792969 142.242188 L 25.863281 142.242188 Z M 25.863281 116.378906 " fill-opacity="1" fill-rule="nonzero"/><path fill="#d0d8da" d="M 38.792969 310.34375 L 38.792969 290.949219 L 25.863281 290.949219 L 25.863281 310.34375 C 25.863281 312.550781 26.089844 314.703125 26.445312 316.808594 L 39.703125 316.808594 C 39.167969 314.734375 38.792969 312.589844 38.792969 310.34375 Z M 38.792969 310.34375 " fill-opacity="1" fill-rule="nonzero"/><path fill="#d0d8da" d="M 336.207031 290.949219 L 336.207031 310.34375 C 336.207031 312.589844 335.832031 314.734375 335.296875 316.808594 L 348.554688 316.808594 C 348.910156 314.703125 349.136719 312.550781 349.136719 310.34375 L 349.136719 290.949219 Z M 336.207031 290.949219 " fill-opacity="1" fill-rule="nonzero"/><path fill="#d0d8da" d="M 116.378906 336.207031 L 142.242188 336.207031 L 142.242188 349.136719 L 116.378906 349.136719 Z M 116.378906 336.207031 " fill-opacity="1" fill-rule="nonzero"/><path fill="#d0d8da" d="M 38.792969 84.050781 L 38.792969 64.65625 C 38.792969 62.410156 39.167969 60.265625 39.703125 58.191406 L 26.445312 58.191406 C 26.089844 60.296875 25.863281 62.449219 25.863281 64.65625 L 25.863281 84.050781 Z M 38.792969 84.050781 " fill-opacity="1" fill-rule="nonzero"/><path fill="#d0d8da" d="M 58.191406 26.445312 L 58.191406 39.703125 C 60.265625 39.167969 62.410156 38.792969 64.65625 38.792969 L 84.050781 38.792969 L 84.050781 25.863281 L 64.65625 25.863281 C 62.449219 25.863281 60.296875 26.089844 58.191406 26.445312 Z M 58.191406 26.445312 " fill-opacity="1" fill-rule="nonzero"/><path fill="#d0d8da" d="M 116.378906 25.863281 L 142.242188 25.863281 L 142.242188 38.792969 L 116.378906 38.792969 Z M 116.378906 25.863281 " fill-opacity="1" fill-rule="nonzero"/><path fill="#d0d8da" d="M 258.621094 349.136719 L 258.621094 336.207031 L 232.757812 336.207031 L 232.757812 349.136719 Z M 258.621094 349.136719 " fill-opacity="1" fill-rule="nonzero"/><path fill="#d0d8da" d="M 174.570312 25.863281 L 200.429688 25.863281 L 200.429688 38.792969 L 174.570312 38.792969 Z M 174.570312 25.863281 " fill-opacity="1" fill-rule="nonzero"/><path fill="#d0d8da" d="M 174.570312 336.207031 L 200.429688 336.207031 L 200.429688 349.136719 L 174.570312 349.136719 Z M 174.570312 336.207031 " fill-opacity="1" fill-rule="nonzero"/><path fill="#d0d8da" d="M 290.949219 25.863281 L 290.949219 38.792969 L 310.34375 38.792969 C 312.589844 38.792969 314.734375 39.167969 316.808594 39.703125 L 316.808594 26.445312 C 314.703125 26.089844 312.550781 25.863281 310.34375 25.863281 Z M 290.949219 25.863281 " fill-opacity="1" fill-rule="nonzero"/><path fill="#d0d8da" d="M 316.808594 348.554688 L 316.808594 335.296875 C 314.734375 335.832031 312.589844 336.207031 310.34375 336.207031 L 290.949219 336.207031 L 290.949219 349.136719 L 310.34375 349.136719 C 312.550781 349.136719 314.703125 348.910156 316.808594 348.554688 Z M 316.808594 348.554688 " fill-opacity="1" fill-rule="nonzero"/><path fill="#d0d8da" d="M 232.757812 25.863281 L 258.621094 25.863281 L 258.621094 38.792969 L 232.757812 38.792969 Z M 232.757812 25.863281 " fill-opacity="1" fill-rule="nonzero"/><path fill="#d0d8da" d="M 336.207031 64.65625 L 336.207031 84.050781 L 349.136719 84.050781 L 349.136719 64.65625 C 349.136719 62.449219 348.910156 60.296875 348.554688 58.191406 L 335.296875 58.191406 C 335.832031 60.265625 336.207031 62.410156 336.207031 64.65625 Z M 336.207031 64.65625 " fill-opacity="1" fill-rule="nonzero"/><path fill="#d0d8da" d="M 336.207031 116.378906 L 349.136719 116.378906 L 349.136719 142.242188 L 336.207031 142.242188 Z M 336.207031 116.378906 " fill-opacity="1" fill-rule="nonzero"/><path fill="#d0d8da" d="M 336.207031 174.570312 L 349.136719 174.570312 L 349.136719 200.429688 L 336.207031 200.429688 Z M 336.207031 174.570312 " fill-opacity="1" fill-rule="nonzero"/><path fill="#d0d8da" d="M 336.207031 232.757812 L 349.136719 232.757812 L 349.136719 258.621094 L 336.207031 258.621094 Z M 336.207031 232.757812 " fill-opacity="1" fill-rule="nonzero"/><path fill="#608ea9" d="M 84.050781 277.097656 L 84.050781 270.363281 C 82.023438 271.085938 79.863281 271.550781 77.585938 271.550781 C 75.308594 271.550781 73.152344 271.085938 71.121094 270.363281 L 71.121094 277.097656 C 73.203125 277.640625 75.34375 278.015625 77.585938 278.015625 C 79.828125 278.015625 81.96875 277.640625 84.050781 277.097656 Z M 84.050781 277.097656 " fill-opacity="1" fill-rule="nonzero"/><path fill="#608ea9" d="M 258.621094 297.414062 C 258.621094 299.691406 258.15625 301.847656 257.429688 303.878906 L 264.167969 303.878906 C 264.710938 301.796875 265.085938 299.65625 265.085938 297.414062 C 265.085938 295.171875 264.710938 293.03125 264.167969 290.949219 L 257.429688 290.949219 C 258.15625 292.976562 258.621094 295.136719 258.621094 297.414062 Z M 258.621094 297.414062 " fill-opacity="1" fill-rule="nonzero"/><path fill="#608ea9" d="M 290.949219 240.140625 L 290.949219 246.878906 C 292.976562 246.15625 295.136719 245.691406 297.414062 245.691406 C 299.691406 245.691406 301.847656 246.15625 303.878906 246.878906 L 303.878906 240.140625 C 301.796875 239.597656 299.65625 239.222656 297.414062 239.222656 C 295.171875 239.222656 293.03125 239.597656 290.949219 240.140625 Z M 290.949219 240.140625 " fill-opacity="1" fill-rule="nonzero"/><path fill="#608ea9" d="M 232.757812 77.585938 C 232.757812 79.863281 232.292969 82.023438 231.570312 84.050781 L 238.304688 84.050781 C 238.847656 81.96875 239.222656 79.828125 239.222656 77.585938 C 239.222656 75.34375 238.847656 73.203125 238.304688 71.121094 L 231.570312 71.121094 C 232.292969 73.152344 232.757812 75.308594 232.757812 77.585938 Z M 232.757812 77.585938 " fill-opacity="1" fill-rule="nonzero"/><path fill="#608ea9" d="M 122.84375 77.585938 C 122.84375 75.308594 123.308594 73.152344 124.035156 71.121094 L 117.296875 71.121094 C 116.753906 73.203125 116.378906 75.34375 116.378906 77.585938 C 116.378906 79.828125 116.753906 81.96875 117.296875 84.050781 L 124.035156 84.050781 C 123.308594 82.023438 122.84375 79.863281 122.84375 77.585938 Z M 122.84375 77.585938 " fill-opacity="1" fill-rule="nonzero"/><path fill="#608ea9" d="M 58.191406 187.5 C 58.191406 185.222656 58.65625 183.066406 59.378906 181.035156 L 52.640625 181.035156 C 52.097656 183.117188 51.722656 185.257812 51.722656 187.5 C 51.722656 189.742188 52.097656 191.882812 52.640625 193.964844 L 59.378906 193.964844 C 58.65625 191.933594 58.191406 189.777344 58.191406 187.5 Z M 58.191406 187.5 " fill-opacity="1" fill-rule="nonzero"/><path fill="#608ea9" d="M 96.984375 187.5 C 96.984375 189.777344 96.515625 191.933594 95.792969 193.964844 L 102.53125 193.964844 C 103.074219 191.882812 103.449219 189.742188 103.449219 187.5 C 103.449219 185.257812 103.074219 183.117188 102.53125 181.035156 L 95.792969 181.035156 C 96.515625 183.066406 96.984375 185.222656 96.984375 187.5 Z M 96.984375 187.5 " fill-opacity="1" fill-rule="nonzero"/><path fill="#608ea9" d="M 258.621094 194.042969 L 258.621094 207.246094 L 265.085938 209.398438 L 265.085938 195.769531 L 260.664062 194.296875 C 259.984375 194.070312 259.300781 194.042969 258.621094 194.042969 Z M 258.621094 194.042969 " fill-opacity="1" fill-rule="nonzero"/><path fill="#608ea9" d="M 168.101562 258.621094 L 181.035156 258.621094 L 181.035156 265.085938 L 168.101562 265.085938 Z M 168.101562 258.621094 " fill-opacity="1" fill-rule="nonzero"/><path fill="#608ea9" d="M 109.914062 181.035156 L 116.378906 181.035156 L 116.378906 193.964844 L 109.914062 193.964844 Z M 109.914062 181.035156 " fill-opacity="1" fill-rule="nonzero"/><path fill="#608ea9" d="M 116.378906 135.777344 L 116.378906 129.308594 C 116.378906 127.074219 117 125.003906 117.996094 123.167969 C 117.464844 123.03125 116.953125 122.84375 116.378906 122.84375 L 111.101562 122.84375 C 110.378906 124.875 109.914062 127.035156 109.914062 129.308594 L 109.914062 135.777344 Z M 116.378906 135.777344 " fill-opacity="1" fill-rule="nonzero"/><path fill="#608ea9" d="M 258.621094 148.707031 L 265.085938 148.707031 L 265.085938 161.636719 L 258.621094 161.636719 Z M 258.621094 148.707031 " fill-opacity="1" fill-rule="nonzero"/></svg>