<svg xmlns="http://www.w3.org/2000/svg" xmlns:xlink="http://www.w3.org/1999/xlink" width="500" zoomAndPan="magnify" viewBox="0 0 375 374.999991" height="500" preserveAspectRatio="xMidYMid meet" version="1.0"><defs><g/><clipPath id="b5bd226957"><path d="M 54.027344 65 L 336 65 L 336 328 L 54.027344 328 Z M 54.027344 65 " clip-rule="nonzero"/></clipPath><clipPath id="749894d7d0"><path d="M 175.769531 46.34375 L 325.617188 46.34375 L 325.617188 94 L 175.769531 94 Z M 175.769531 46.34375 " clip-rule="nonzero"/></clipPath><clipPath id="2a8bd59a1d"><path d="M 211.027344 82.492188 L 283.507812 82.492188 L 283.507812 120.582031 L 211.027344 120.582031 Z M 211.027344 82.492188 " clip-rule="nonzero"/></clipPath></defs><g clip-path="url(#b5bd226957)"><path fill="#ff7f30" d="M 332.351562 229.0625 L 326.980469 245.980469 C 312.746094 279.246094 288.75 302.828125 254.992188 316.734375 C 221.042969 330.578125 184.90625 330.832031 146.582031 317.503906 C 110.421875 303.042969 84.296875 279.804688 68.203125 247.792969 C 63.066406 237.457031 59.382812 226.65625 57.152344 215.390625 L 55.027344 198.324219 C 54.378906 186.78125 55.4375 175.144531 58.203125 163.425781 C 67.789062 127.71875 88.332031 101.019531 119.832031 83.324219 C 151.332031 65.632812 186.605469 60.980469 225.65625 69.371094 C 264.269531 79.574219 293.613281 99.699219 313.683594 129.738281 C 333.753906 159.777344 339.980469 192.886719 332.351562 229.0625 " fill-opacity="1" fill-rule="nonzero"/></g><path fill="#262626" d="M 189.300781 93.222656 C 188.890625 93.324219 188.464844 93.394531 188.039062 93.417969 C 187.226562 93.472656 186.519531 93.375 185.914062 93.152344 C 184.824219 95.515625 184.042969 100.820312 183.410156 105.6875 C 185.425781 106.523438 188.242188 106.941406 190.816406 106.789062 C 190.710938 102.71875 191.832031 96.582031 189.300781 93.222656 " fill-opacity="1" fill-rule="nonzero"/><g clip-path="url(#749894d7d0)"><path fill="#262626" d="M 308.113281 61.605469 C 300.820312 60.039062 293.585938 58.371094 286.390625 56.402344 C 282.449219 55.320312 250.546875 47.5625 250.546875 47.5625 L 245.519531 46.347656 L 229.496094 51.316406 C 229.496094 51.316406 211.027344 57.046875 210.160156 57.320312 C 203.636719 59.367188 197.148438 61.523438 190.648438 63.652344 C 187.125 64.804688 183.519531 65.65625 180 66.773438 C 178.558594 67.230469 177.183594 67.742188 175.769531 68.082031 C 176.660156 68.539062 177.546875 69.019531 178.5 69.398438 C 180.929688 70.359375 183.402344 71.191406 185.894531 71.941406 C 186.273438 79.238281 186.910156 77.898438 186.566406 85.195312 C 185.179688 85.722656 184.191406 87.050781 184.191406 88.617188 C 184.191406 90.644531 185.839844 92.289062 187.875 92.289062 C 189.910156 92.289062 191.558594 90.644531 191.558594 88.617188 C 191.558594 86.871094 190.335938 85.417969 188.703125 85.042969 C 189.027344 77.875 188.414062 79.347656 188.039062 72.179688 C 196.992188 70.65625 205.960938 68.644531 214.878906 66.863281 C 224.25 64.988281 243.609375 62.683594 243.132812 62.769531 C 231.835938 64.78125 224.347656 67.582031 214.980469 69.351562 C 210.089844 70.277344 204.691406 71.203125 199.773438 71.988281 C 197.21875 72.390625 194.730469 73.195312 192.21875 73.691406 C 197.652344 75.113281 203.117188 76.503906 208.378906 78.476562 C 215.75 81.238281 222.328125 84.71875 229.847656 87.0625 C 235.359375 88.777344 242.453125 91.375 247.828125 93.75 C 264.550781 88.191406 274.757812 84.109375 288.09375 79.414062 C 295.273438 76.886719 302.480469 74.171875 309.742188 71.886719 C 314.6875 70.332031 321.488281 68.191406 325.617188 66.039062 C 319.773438 64.835938 313.933594 62.855469 308.113281 61.605469 " fill-opacity="1" fill-rule="nonzero"/></g><g clip-path="url(#2a8bd59a1d)"><path fill="#262626" d="M 248.175781 95.984375 C 247.953125 95.917969 244.800781 94.507812 243.863281 94.277344 C 238.398438 92.058594 232.738281 90.125 227.136719 88.445312 C 221.621094 86.789062 216.460938 84.589844 211.132812 82.503906 C 211.445312 86.671875 211.292969 90.855469 211.417969 95.035156 C 211.523438 98.640625 211.722656 102.351562 211.519531 105.992188 L 211.519531 107.640625 C 211.519531 115.589844 227.046875 118.230469 227.046875 118.230469 C 233.121094 119.867188 239.417969 120.730469 245.714844 120.5625 C 252.9375 120.363281 260.320312 119.535156 267.238281 117.371094 C 271.886719 115.921875 281.902344 112.617188 283.019531 106.753906 C 282.46875 98.992188 282.765625 90.777344 283.429688 83.058594 C 272.050781 87.132812 248.496094 95.929688 248.175781 95.984375 " fill-opacity="1" fill-rule="nonzero"/></g><g fill="#1e1e1e" fill-opacity="1"><g transform="translate(62.569116, 183.293138)"><g><path d="M 66.546875 -98.78125 L 76.421875 -85.65625 L 74.21875 -13.25 L 64.078125 -1.296875 L 2.59375 0.125 L 3.375 -103.96875 Z M 30.015625 -78.765625 L 31.0625 -21.0625 L 49.125 -25.078125 L 50.03125 -73.046875 Z M 30.015625 -78.765625 "/></g></g></g><g fill="#1e1e1e" fill-opacity="1"><g transform="translate(54.880657, 297.852751)"><g><path d="M 80.328125 -114.765625 L 83.484375 -108.875 L 82.765625 -8.03125 L 73.59375 -0.140625 L 10.328125 -1.4375 L 2.875 -12.34375 L 4.296875 -37.578125 L 29.546875 -38.015625 L 31.5625 -23.09375 L 52.640625 -24.53125 L 54.21875 -87.5 L 34.578125 -87.078125 L 29.40625 -93.53125 L 29.40625 -114.046875 Z M 80.328125 -114.765625 "/></g></g></g><g fill="#1e1e1e" fill-opacity="1"><g transform="translate(138.490395, 180.508772)"><g><path d="M 50.53125 -57.84375 L 55.734375 -51.03125 L 55.4375 -32.984375 L 52.4375 -28.0625 L 36.6875 -28.375 L 35.28125 -40.296875 L 23.765625 -40.90625 L 23.765625 -0.203125 L 2.8125 -1.296875 L 2 -58.453125 L 14.53125 -58.34375 L 16.4375 -55.03125 L 18.84375 -57.75 Z M 50.53125 -57.84375 "/></g></g></g><g fill="#1e1e1e" fill-opacity="1"><g transform="translate(135.87565, 261.682112)"><g><path d="M 48.71875 -58.84375 L 49.96875 -0.171875 L 32.703125 0.171875 L 32.203125 -20.5 L 19 -19.671875 L 17.671875 -0.25 L 1.65625 0.078125 L 4.234375 -60.84375 L 7.46875 -64.734375 L 43.65625 -66.3125 Z M 32.125 -33.109375 L 31.703125 -49.640625 L 20.75 -48.71875 L 19.921875 -33.953125 Z M 32.125 -33.109375 "/></g></g></g><g fill="#1e1e1e" fill-opacity="1"><g transform="translate(183.332908, 180.194589)"><g><path d="M 22.609375 -23.6875 L 28.71875 -19.625 L 28 -0.125 L 5.5 -0.125 L 2.390625 -3.46875 L 5.140625 -19.734375 L 9.578125 -23.328125 Z M 22.609375 -23.6875 "/></g></g></g><g fill="#1e1e1e" fill-opacity="1"><g transform="translate(215.15274, 174.830383)"><g><path d="M 8.015625 -51.328125 L 56.46875 -50.375 L 56.46875 -32.1875 L 7.171875 -32.65625 Z M 8.015625 -51.328125 "/></g></g></g><g fill="#1e1e1e" fill-opacity="1"><g transform="translate(289.870826, 283.845756)"><g><path d="M 45.390625 -88.75 L 70.6875 -89.890625 L 67.421875 -0.90625 L 47.203125 -0.109375 L 26.421875 -44.15625 L 24.84375 -2.265625 L 2.265625 0 L 2.9375 -89.765625 L 27.328125 -89.765625 L 45.171875 -52.0625 Z M 45.390625 -88.75 "/></g></g></g><g fill="#1e1e1e" fill-opacity="1"><g transform="translate(178.188962, 285.859229)"><g><path d="M 64.25 -55.28125 L 70.109375 -42.71875 L 69.265625 -7.171875 L 61.734375 -0.484375 L 6.9375 0 L 2.390625 -9.453125 L 4.671875 -32.65625 L 25.25 -32.546875 L 26.921875 -21.890625 L 45.21875 -22.25 L 45.828125 -37.328125 L 8.859375 -41.515625 L 3.46875 -47.609375 L 4.0625 -87.703125 L 8.734375 -93.3125 L 52.640625 -95.59375 L 68.078125 -91.171875 L 69.15625 -68.546875 L 64.71875 -64.71875 L 47.96875 -63.890625 L 44.984375 -73.578125 L 29.078125 -72.265625 L 27.75 -58.5 Z M 64.25 -55.28125 "/></g></g></g><g fill="#1e1e1e" fill-opacity="1"><g transform="translate(239.775589, 260.716085)"><g><path d="M 55.515625 -82.703125 L 60.375 -77.421875 L 59.640625 -7.546875 L 55.828125 -0.203125 L 9.40625 0.109375 L 2.578125 -3.921875 L 2.0625 -77.21875 L 5.375 -82.390625 Z M 23.78125 -65.328125 L 24.390625 -17.578125 L 38.359375 -16.640625 L 38.5625 -64.09375 Z M 23.78125 -65.328125 "/></g></g></g><g fill="#1e1e1e" fill-opacity="1"><g transform="translate(183.332908, 339.869627)"><g><path d="M 8.015625 -51.328125 L 56.46875 -50.375 L 56.46875 -32.1875 L 7.171875 -32.65625 Z M 8.015625 -51.328125 "/></g></g></g></svg>