<svg xmlns="http://www.w3.org/2000/svg" xmlns:xlink="http://www.w3.org/1999/xlink" width="500" zoomAndPan="magnify" viewBox="0 0 375 374.999991" height="500" preserveAspectRatio="xMidYMid meet" version="1.0"><path fill="#fcd770" d="M 308.296875 115.40625 C 310.789062 120.15625 312.210938 125.5 312.210938 131.078125 C 312.210938 142.175781 306.632812 152.566406 297.378906 158.738281 L 294.410156 160.757812 L 295.597656 162.773438 C 298.328125 167.523438 299.691406 172.746094 299.691406 178.03125 C 299.691406 183.253906 298.328125 188.476562 295.65625 193.167969 C 290.078125 202.839844 279.695312 208.660156 268.601562 208.363281 L 264.742188 208.242188 L 264.863281 212.101562 C 264.863281 212.398438 264.863281 212.636719 264.863281 212.933594 C 264.863281 223.675781 259.105469 233.707031 249.671875 239.167969 C 240.296875 244.570312 228.726562 244.570312 219.292969 239.109375 L 217.273438 237.921875 L 215.257812 240.890625 C 212.171875 245.519531 208.019531 249.199219 203.269531 251.8125 C 198.523438 254.304688 193.183594 255.730469 187.605469 255.730469 C 176.511719 255.730469 166.128906 250.148438 159.957031 240.890625 L 157.9375 237.921875 L 155.921875 239.109375 C 151.175781 241.839844 145.953125 243.207031 140.671875 243.207031 C 135.449219 243.207031 130.230469 241.839844 125.542969 239.167969 C 115.871094 233.589844 110.054688 223.203125 110.351562 212.101562 L 110.472656 208.242188 L 106.613281 208.363281 C 106.316406 208.363281 106.078125 208.363281 105.785156 208.363281 C 95.042969 208.363281 85.015625 202.605469 79.558594 193.167969 C 74.15625 183.789062 74.15625 172.210938 79.617188 162.773438 L 80.804688 160.757812 L 77.835938 158.738281 C 73.207031 155.652344 69.527344 151.496094 66.917969 146.75 C 64.425781 142 63.003906 136.65625 63.003906 131.078125 C 63.003906 119.976562 68.578125 109.589844 77.835938 103.417969 L 80.804688 101.398438 L 79.617188 99.378906 C 76.886719 94.632812 75.523438 89.410156 75.523438 84.125 C 75.523438 78.902344 76.886719 73.679688 79.558594 68.988281 C 85.132812 59.3125 95.519531 53.496094 106.613281 53.792969 L 110.472656 53.914062 L 110.351562 50.054688 C 110.351562 49.757812 110.351562 49.519531 110.351562 49.222656 C 110.351562 38.480469 116.109375 28.449219 125.542969 22.988281 C 134.917969 17.585938 146.488281 17.585938 155.921875 23.046875 L 157.9375 24.234375 L 159.957031 21.265625 C 163.042969 16.636719 167.195312 12.957031 171.941406 10.34375 C 176.6875 7.851562 182.027344 6.425781 187.605469 6.425781 C 198.703125 6.425781 209.085938 12.003906 215.257812 21.265625 L 217.273438 24.234375 L 219.292969 23.046875 C 224.039062 20.316406 229.261719 18.949219 234.542969 18.949219 C 239.761719 18.949219 244.984375 20.316406 249.671875 22.988281 C 259.34375 28.566406 265.160156 38.953125 264.863281 50.054688 L 264.742188 53.914062 L 268.601562 53.792969 C 268.894531 53.792969 269.132812 53.792969 269.429688 53.792969 C 280.171875 53.792969 290.199219 59.550781 295.65625 68.988281 C 301.054688 78.367188 301.054688 89.941406 295.597656 99.378906 L 294.410156 101.398438 L 297.378906 103.417969 C 302.003906 106.503906 305.683594 110.660156 308.296875 115.40625 Z M 308.296875 115.40625 " fill-opacity="1" fill-rule="nonzero"/><path fill="#ffeaa7" d="M 187.605469 42.039062 C 236.738281 42.039062 276.609375 81.929688 276.609375 131.078125 C 276.609375 180.226562 236.738281 220.113281 187.605469 220.113281 C 138.476562 220.113281 98.605469 180.226562 98.605469 131.078125 C 98.605469 81.929688 138.476562 42.039062 187.605469 42.039062 Z M 187.605469 42.039062 " fill-opacity="1" fill-rule="nonzero"/><path fill="#d3a06c" d="M 229.140625 83.589844 L 146.070312 83.589844 C 142.808594 83.589844 140.136719 86.261719 140.136719 89.527344 L 140.136719 172.628906 C 140.136719 175.894531 142.808594 178.5625 146.070312 178.5625 L 229.140625 178.5625 C 232.40625 178.5625 235.074219 175.894531 235.074219 172.628906 L 235.074219 89.527344 C 235.074219 86.261719 232.40625 83.589844 229.140625 83.589844 Z M 229.140625 83.589844 " fill-opacity="1" fill-rule="nonzero"/><path fill="#b27946" d="M 205.40625 107.335938 L 169.804688 107.335938 C 166.53125 107.335938 163.871094 104.675781 163.871094 101.398438 L 163.871094 83.589844 L 211.339844 83.589844 L 211.339844 101.398438 C 211.339844 104.675781 208.683594 107.335938 205.40625 107.335938 Z M 205.40625 107.335938 " fill-opacity="1" fill-rule="nonzero"/><path fill="#fc6e51" d="M 365.613281 255.730469 L 347.8125 291.34375 L 365.613281 326.960938 L 318.144531 326.960938 L 318.144531 285.410156 C 318.144531 282.144531 315.476562 279.472656 312.210938 279.472656 L 282.542969 279.472656 L 282.542969 261.664062 C 282.542969 258.402344 285.214844 255.730469 288.476562 255.730469 Z M 365.613281 255.730469 " fill-opacity="1" fill-rule="nonzero"/><path fill="#fc6e51" d="M 92.671875 261.664062 L 92.671875 279.472656 L 63.003906 279.472656 C 59.738281 279.472656 57.070312 282.144531 57.070312 285.410156 L 57.070312 326.960938 L 9.601562 326.960938 L 27.402344 291.34375 L 9.601562 255.730469 L 86.738281 255.730469 C 90 255.730469 92.671875 258.402344 92.671875 261.664062 Z M 92.671875 261.664062 " fill-opacity="1" fill-rule="nonzero"/><path fill="#fcd770" d="M 294.410156 315.085938 L 288.476562 326.960938 L 288.476562 338.832031 L 276.609375 332.894531 L 264.742188 338.832031 L 264.742188 326.960938 L 258.808594 315.085938 L 270.675781 315.085938 L 276.609375 303.214844 L 282.542969 315.085938 Z M 294.410156 315.085938 " fill-opacity="1" fill-rule="nonzero"/><path fill="#ff826e" d="M 318.144531 326.960938 L 318.144531 356.636719 C 318.144531 359.902344 315.476562 362.574219 312.210938 362.574219 L 63.003906 362.574219 C 59.738281 362.574219 57.070312 359.902344 57.070312 356.636719 L 57.070312 285.410156 C 57.070312 282.144531 59.738281 279.472656 63.003906 279.472656 L 312.210938 279.472656 C 315.476562 279.472656 318.144531 282.144531 318.144531 285.410156 Z M 318.144531 326.960938 " fill-opacity="1" fill-rule="nonzero"/><path fill="#fcd770" d="M 235.074219 315.085938 L 229.140625 326.960938 L 229.140625 338.832031 L 217.273438 332.894531 L 205.40625 338.832031 L 205.40625 326.960938 L 199.472656 315.085938 L 211.339844 315.085938 L 217.273438 303.214844 L 223.207031 315.085938 Z M 235.074219 315.085938 " fill-opacity="1" fill-rule="nonzero"/><path fill="#fcd770" d="M 175.738281 315.085938 L 169.804688 326.960938 L 169.804688 338.832031 L 157.9375 332.894531 L 146.070312 338.832031 L 146.070312 326.960938 L 140.136719 315.085938 L 152.003906 315.085938 L 157.9375 303.214844 L 163.871094 315.085938 Z M 175.738281 315.085938 " fill-opacity="1" fill-rule="nonzero"/><path fill="#fcd770" d="M 116.402344 315.085938 L 110.472656 326.960938 L 110.472656 338.832031 L 98.605469 332.894531 L 86.738281 338.832031 L 86.738281 326.960938 L 80.804688 315.085938 L 92.671875 315.085938 L 98.605469 303.214844 L 104.539062 315.085938 Z M 116.402344 315.085938 " fill-opacity="1" fill-rule="nonzero"/><path fill="#000000" d="M 98.605469 289.945312 L 89.003906 309.152344 L 71.203125 309.152344 L 80.804688 328.359375 L 80.804688 348.433594 L 98.605469 339.53125 L 116.402344 348.433594 L 116.402344 328.359375 L 126.003906 309.152344 L 108.203125 309.152344 Z M 104.539062 325.558594 L 104.539062 329.226562 L 98.605469 326.257812 L 92.671875 329.226562 L 92.671875 325.558594 L 90.402344 321.023438 L 96.335938 321.023438 L 98.605469 316.488281 L 100.871094 321.023438 L 106.804688 321.023438 Z M 104.539062 325.558594 " fill-opacity="1" fill-rule="nonzero"/><path fill="#000000" d="M 157.9375 289.945312 L 148.339844 309.152344 L 130.539062 309.152344 L 140.136719 328.359375 L 140.136719 348.433594 L 157.9375 339.53125 L 175.738281 348.433594 L 175.738281 328.359375 L 185.339844 309.152344 L 167.539062 309.152344 Z M 163.871094 325.558594 L 163.871094 329.226562 L 157.9375 326.257812 L 152.003906 329.226562 L 152.003906 325.558594 L 149.738281 321.023438 L 155.671875 321.023438 L 157.9375 316.488281 L 160.207031 321.023438 L 166.140625 321.023438 Z M 163.871094 325.558594 " fill-opacity="1" fill-rule="nonzero"/><path fill="#000000" d="M 217.273438 289.945312 L 207.675781 309.152344 L 189.875 309.152344 L 199.472656 328.359375 L 199.472656 348.433594 L 217.273438 339.53125 L 235.074219 348.433594 L 235.074219 328.359375 L 244.675781 309.152344 L 226.875 309.152344 Z M 223.207031 325.558594 L 223.207031 329.226562 L 217.273438 326.257812 L 211.339844 329.226562 L 211.339844 325.558594 L 209.074219 321.023438 L 215.007812 321.023438 L 217.273438 316.488281 L 219.542969 321.023438 L 225.476562 321.023438 Z M 223.207031 325.558594 " fill-opacity="1" fill-rule="nonzero"/><path fill="#000000" d="M 276.609375 289.945312 L 267.007812 309.152344 L 249.207031 309.152344 L 258.808594 328.359375 L 258.808594 348.433594 L 276.609375 339.53125 L 294.410156 348.433594 L 294.410156 328.359375 L 304.011719 309.152344 L 286.210938 309.152344 Z M 282.542969 325.558594 L 282.542969 329.226562 L 276.609375 326.257812 L 270.675781 329.226562 L 270.675781 325.558594 L 268.410156 321.023438 L 274.34375 321.023438 L 276.609375 316.488281 L 278.875 321.023438 L 284.808594 321.023438 Z M 282.542969 325.558594 " fill-opacity="1" fill-rule="nonzero"/><path fill="#000000" d="M 354.445312 291.34375 L 375.214844 249.792969 L 288.476562 249.792969 C 281.933594 249.792969 276.609375 255.117188 276.609375 261.664062 L 276.609375 273.535156 L 98.605469 273.535156 L 98.605469 261.664062 C 98.605469 255.117188 93.28125 249.792969 86.738281 249.792969 L 0 249.792969 L 20.765625 291.34375 L 0 332.894531 L 51.136719 332.894531 L 51.136719 356.636719 C 51.136719 363.183594 56.457031 368.511719 63.003906 368.511719 L 312.210938 368.511719 C 318.757812 368.511719 324.078125 363.183594 324.078125 356.636719 L 324.078125 332.894531 L 375.214844 332.894531 Z M 51.136719 285.410156 L 51.136719 321.023438 L 19.199219 321.023438 L 34.035156 291.34375 L 19.199219 261.664062 L 86.738281 261.664062 L 86.738281 273.535156 L 63.003906 273.535156 C 56.464844 273.535156 51.136719 278.863281 51.136719 285.410156 Z M 63.003906 356.636719 L 63.003906 285.410156 L 312.210938 285.410156 L 312.222656 356.636719 Z M 312.210938 273.535156 L 288.476562 273.535156 L 288.476562 261.664062 L 356.011719 261.664062 L 341.179688 291.34375 L 356.011719 321.023438 L 324.078125 321.023438 L 324.078125 285.410156 C 324.078125 278.863281 318.757812 273.535156 312.210938 273.535156 Z M 312.210938 273.535156 " fill-opacity="1" fill-rule="nonzero"/><path fill="#000000" d="M 187.605469 226.050781 C 239.953125 226.050781 282.542969 183.445312 282.542969 131.078125 C 282.542969 78.710938 239.953125 36.105469 187.605469 36.105469 C 135.261719 36.105469 92.671875 78.710938 92.671875 131.078125 C 92.671875 183.445312 135.261719 226.050781 187.605469 226.050781 Z M 187.605469 47.976562 C 233.414062 47.976562 270.675781 85.253906 270.675781 131.078125 C 270.675781 176.902344 233.414062 214.179688 187.605469 214.179688 C 141.800781 214.179688 104.539062 176.902344 104.539062 131.078125 C 104.539062 85.253906 141.800781 47.976562 187.605469 47.976562 Z M 187.605469 47.976562 " fill-opacity="1" fill-rule="nonzero"/><path fill="#000000" d="M 73.011719 162.636719 C 68.023438 173.292969 68.496094 185.863281 74.4375 196.15625 C 80.695312 207.007812 92.042969 213.800781 104.453125 214.261719 C 104.917969 226.675781 111.703125 238.027344 122.550781 244.292969 C 132.847656 250.234375 145.417969 250.707031 156.058594 245.714844 C 163.433594 255.734375 175.09375 261.664062 187.605469 261.664062 C 200.121094 261.664062 211.78125 255.734375 219.15625 245.714844 C 229.800781 250.707031 242.375 250.234375 252.664062 244.292969 C 263.503906 238.027344 270.289062 226.679688 270.757812 214.261719 C 283.167969 213.800781 294.515625 207.007812 300.777344 196.15625 C 306.714844 185.863281 307.191406 173.28125 302.203125 162.636719 C 312.21875 155.261719 318.144531 143.597656 318.144531 131.078125 C 318.144531 118.558594 312.21875 106.894531 302.203125 99.515625 C 307.191406 88.863281 306.714844 76.289062 300.777344 65.996094 C 294.515625 55.148438 283.171875 48.355469 270.757812 47.894531 C 270.296875 35.480469 263.507812 24.125 252.664062 17.863281 C 242.367188 11.917969 229.792969 11.449219 219.15625 16.441406 C 211.78125 6.417969 200.125 0.488281 187.605469 0.488281 C 175.085938 0.488281 163.433594 6.417969 156.058594 16.441406 C 145.402344 11.441406 132.835938 11.921875 122.550781 17.863281 C 111.710938 24.125 104.921875 35.476562 104.453125 47.894531 C 92.046875 48.355469 80.695312 55.148438 74.4375 65.996094 C 68.496094 76.289062 68.023438 88.875 73.011719 99.515625 C 62.996094 106.894531 57.070312 118.558594 57.070312 131.078125 C 57.070312 143.597656 62.996094 155.261719 73.011719 162.636719 Z M 81.105469 108.332031 L 88.730469 103.25 L 84.75 96.378906 C 80.375 88.84375 80.359375 79.476562 84.714844 71.933594 C 89.1875 64.179688 97.582031 59.46875 106.472656 59.746094 L 116.570312 60.019531 L 116.296875 49.921875 C 116.058594 40.964844 120.722656 32.625 128.480469 28.152344 C 136.019531 23.792969 145.382812 23.8125 152.925781 28.191406 L 159.785156 32.167969 L 164.863281 24.542969 C 169.953125 16.914062 178.453125 12.363281 187.605469 12.363281 C 196.761719 12.363281 205.265625 16.914062 210.34375 24.535156 L 215.421875 32.164062 L 222.292969 28.179688 C 229.8125 23.804688 239.179688 23.78125 246.730469 28.144531 C 254.484375 32.621094 259.148438 40.960938 258.910156 49.910156 L 258.636719 60.015625 L 268.730469 59.742188 C 277.628906 59.484375 286.019531 64.167969 290.496094 71.925781 C 294.851562 79.472656 294.832031 88.84375 290.453125 96.382812 L 286.476562 103.246094 L 294.101562 108.324219 C 301.722656 113.40625 306.273438 121.914062 306.273438 131.070312 C 306.273438 140.230469 301.722656 148.738281 294.101562 153.816406 L 286.476562 158.898438 L 290.457031 165.773438 C 294.832031 173.304688 294.851562 182.671875 290.496094 190.214844 C 286.019531 197.96875 277.617188 202.675781 268.734375 202.402344 L 258.636719 202.128906 L 258.910156 212.226562 C 259.148438 221.183594 254.484375 229.523438 246.730469 234 C 239.1875 238.355469 229.824219 238.335938 222.28125 233.957031 L 215.421875 229.980469 L 210.34375 237.609375 C 205.265625 245.242188 196.761719 249.792969 187.605469 249.792969 C 178.453125 249.792969 169.949219 245.242188 164.871094 237.621094 L 159.789062 229.992188 L 152.917969 233.976562 C 145.394531 238.355469 136.027344 238.367188 128.484375 234.011719 C 120.730469 229.535156 116.066406 221.195312 116.304688 212.242188 L 116.578125 202.140625 L 106.484375 202.414062 C 97.523438 202.675781 89.191406 197.984375 84.71875 190.226562 C 80.363281 182.683594 80.382812 173.3125 84.761719 165.773438 L 88.734375 158.910156 L 81.113281 153.828125 C 73.492188 148.75 68.941406 140.242188 68.941406 131.082031 C 68.941406 121.925781 73.488281 113.414062 81.105469 108.332031 Z M 81.105469 108.332031 " fill-opacity="1" fill-rule="nonzero"/><path fill="#000000" d="M 146.070312 184.5 L 229.140625 184.5 C 235.6875 184.5 241.007812 179.175781 241.007812 172.628906 L 241.007812 89.527344 C 241.007812 82.980469 235.6875 77.65625 229.140625 77.65625 L 146.070312 77.65625 C 139.527344 77.65625 134.203125 82.980469 134.203125 89.527344 L 134.203125 172.628906 C 134.203125 179.175781 139.535156 184.5 146.070312 184.5 Z M 169.804688 89.527344 L 181.671875 89.527344 L 181.671875 101.398438 L 169.804688 101.398438 Z M 193.539062 89.527344 L 205.40625 89.527344 L 205.40625 101.398438 L 193.539062 101.398438 Z M 146.070312 89.527344 L 157.9375 89.527344 L 157.9375 101.398438 C 157.9375 107.945312 163.261719 113.269531 169.804688 113.269531 L 205.40625 113.269531 C 211.953125 113.269531 217.273438 107.945312 217.273438 101.398438 L 217.273438 89.527344 L 229.140625 89.527344 L 229.152344 172.628906 L 146.070312 172.628906 Z M 146.070312 89.527344 " fill-opacity="1" fill-rule="nonzero"/><path fill="#000000" d="M 181.671875 148.886719 L 193.539062 148.886719 L 193.539062 160.757812 L 181.671875 160.757812 Z M 181.671875 148.886719 " fill-opacity="1" fill-rule="nonzero"/><path fill="#000000" d="M 205.40625 148.886719 L 217.273438 148.886719 L 217.273438 160.757812 L 205.40625 160.757812 Z M 205.40625 148.886719 " fill-opacity="1" fill-rule="nonzero"/></svg>